<svg viewBox="0 0 100 100" width="100" height="100" fill="none" xmlns="http://www.w3.org/2000/svg"><g stroke="#0e4226" stroke-width="1.4" stroke-linejoin="round"><path d="M50 24 L34 42 L50 42 Z" fill="#2fa866"/><path d="M50 24 L66 42 L50 42 Z" fill="#1c7a45"/><path d="M34 42 L50 42 L50 58 L34 58 Z" fill="#239a59"/><path d="M50 42 L66 42 L66 58 L50 58 Z" fill="#0e4226"/><path d="M34 58 L50 58 L50 76 Z" fill="#1c7a45"/><path d="M66 58 L50 58 L50 76 Z" fill="#0e4226"/></g><path d="M50 24 L66 42 L66 58 L50 76 L34 58 L34 42 Z" fill="none" stroke="#0e4226" stroke-width="1.8" stroke-linejoin="round"/><path d="M46 29 L48 30 L39 40 L37 39 Z" fill="#ffffff" fill-opacity="0.45"/></svg>
